<?xml version="1.0" encoding="UTF-8"?>
<!--Generator: Apple Native CoreSVG 175.5-->
<!DOCTYPE svg
PUBLIC "-//W3C//DTD SVG 1.1//EN"
       "http://www.w3.org/Graphics/SVG/1.1/DTD/svg11.dtd">
<svg version="1.1" xmlns="http://www.w3.org/2000/svg" xmlns:xlink="http://www.w3.org/1999/xlink" width="3300" height="2200">
 <!--glyph: "uni100752.medium", point size: 100.0, font version: "18.0d12e2", template writer version: "101"-->
 <style>.monochrome-0 {fill:#000000}
.monochrome-1 {fill:#000000;-sfsymbols-clear-behind:true}

.multicolor-0:tintColor {fill:#007AFF}
.multicolor-1:tintColor {fill:#007AFF;-sfsymbols-clear-behind:true}

.hierarchical-0:secondary {fill:#4D4D4D}
.hierarchical-1:primary {fill:#212121;-sfsymbols-clear-behind:true}

.SFSymbolsPreview007AFF {fill:#007AFF;opacity:1.0}
</style>
 <g id="Notes">
  <rect height="2200" id="artboard" style="fill:white;opacity:1" width="3300" x="0" y="0"/>
  <line style="fill:none;stroke:black;opacity:1;stroke-width:0.5;" x1="263" x2="3036" y1="292" y2="292"/>
  <text style="stroke:none;fill:black;font-family:sans-serif;font-size:13;font-weight:bold;" transform="matrix(1 0 0 1 263 322)">Weight/Scale Variations</text>
  <text style="stroke:none;fill:black;font-family:sans-serif;font-size:13;text-anchor:middle;" transform="matrix(1 0 0 1 559.711 322)">Ultralight</text>
  <text style="stroke:none;fill:black;font-family:sans-serif;font-size:13;text-anchor:middle;" transform="matrix(1 0 0 1 856.422 322)">Thin</text>
  <text style="stroke:none;fill:black;font-family:sans-serif;font-size:13;text-anchor:middle;" transform="matrix(1 0 0 1 1153.13 322)">Light</text>
  <text style="stroke:none;fill:black;font-family:sans-serif;font-size:13;text-anchor:middle;" transform="matrix(1 0 0 1 1449.84 322)">Regular</text>
  <text style="stroke:none;fill:black;font-family:sans-serif;font-size:13;text-anchor:middle;" transform="matrix(1 0 0 1 1746.56 322)">Medium</text>
  <text style="stroke:none;fill:black;font-family:sans-serif;font-size:13;text-anchor:middle;" transform="matrix(1 0 0 1 2043.27 322)">Semibold</text>
  <text style="stroke:none;fill:black;font-family:sans-serif;font-size:13;text-anchor:middle;" transform="matrix(1 0 0 1 2339.98 322)">Bold</text>
  <text style="stroke:none;fill:black;font-family:sans-serif;font-size:13;text-anchor:middle;" transform="matrix(1 0 0 1 2636.69 322)">Heavy</text>
  <text style="stroke:none;fill:black;font-family:sans-serif;font-size:13;text-anchor:middle;" transform="matrix(1 0 0 1 2933.4 322)">Black</text>
  <line style="fill:none;stroke:black;opacity:1;stroke-width:0.5;" x1="263" x2="3036" y1="1903" y2="1903"/>
  <g transform="matrix(1 0 0 1 263 1933)">
   <path d="M9.24805 0.830078C13.5547 0.830078 17.1387-2.74414 17.1387-7.05078C17.1387-11.3574 13.5449-14.9316 9.23828-14.9316C4.94141-14.9316 1.36719-11.3574 1.36719-7.05078C1.36719-2.74414 4.95117 0.830078 9.24805 0.830078ZM9.24805-0.654297C5.70312-0.654297 2.87109-3.49609 2.87109-7.05078C2.87109-10.6055 5.69336-13.4473 9.23828-13.4473C12.793-13.4473 15.6445-10.6055 15.6445-7.05078C15.6445-3.49609 12.8027-0.654297 9.24805-0.654297ZM5.6543-7.05078C5.6543-6.62109 5.95703-6.32812 6.40625-6.32812L8.50586-6.32812L8.50586-4.20898C8.50586-3.76953 8.79883-3.4668 9.22852-3.4668C9.67773-3.4668 9.9707-3.76953 9.9707-4.20898L9.9707-6.32812L12.0898-6.32812C12.5293-6.32812 12.832-6.62109 12.832-7.05078C12.832-7.49023 12.5293-7.79297 12.0898-7.79297L9.9707-7.79297L9.9707-9.90234C9.9707-10.3516 9.67773-10.6543 9.22852-10.6543C8.79883-10.6543 8.50586-10.3516 8.50586-9.90234L8.50586-7.79297L6.40625-7.79297C5.95703-7.79297 5.6543-7.49023 5.6543-7.05078Z"/>
  </g>
  <g transform="matrix(1 0 0 1 281.867 1933)">
   <path d="M11.709 2.91016C17.1582 2.91016 21.6699-1.61133 21.6699-7.05078C21.6699-12.5 17.1484-17.0117 11.6992-17.0117C6.25977-17.0117 1.74805-12.5 1.74805-7.05078C1.74805-1.61133 6.26953 2.91016 11.709 2.91016ZM11.709 1.25C7.09961 1.25 3.41797-2.44141 3.41797-7.05078C3.41797-11.6602 7.08984-15.3516 11.6992-15.3516C16.3086-15.3516 20.0098-11.6602 20.0098-7.05078C20.0098-2.44141 16.3184 1.25 11.709 1.25ZM7.17773-7.05078C7.17773-6.57227 7.50977-6.25 8.00781-6.25L10.8789-6.25L10.8789-3.36914C10.8789-2.88086 11.2109-2.53906 11.6895-2.53906C12.1777-2.53906 12.5195-2.87109 12.5195-3.36914L12.5195-6.25L15.4004-6.25C15.8887-6.25 16.2305-6.57227 16.2305-7.05078C16.2305-7.53906 15.8887-7.88086 15.4004-7.88086L12.5195-7.88086L12.5195-10.752C12.5195-11.25 12.1777-11.5918 11.6895-11.5918C11.2109-11.5918 10.8789-11.25 10.8789-10.752L10.8789-7.88086L8.00781-7.88086C7.50977-7.88086 7.17773-7.53906 7.17773-7.05078Z"/>
  </g>
  <g transform="matrix(1 0 0 1 305.646 1933)">
   <path d="M14.9707 5.66406C21.9336 5.66406 27.6953-0.0976562 27.6953-7.05078C27.6953-14.0137 21.9238-19.7754 14.9609-19.7754C8.00781-19.7754 2.25586-14.0137 2.25586-7.05078C2.25586-0.0976562 8.01758 5.66406 14.9707 5.66406ZM14.9707 3.84766C8.93555 3.84766 4.08203-1.01562 4.08203-7.05078C4.08203-13.0957 8.92578-17.9492 14.9609-17.9492C21.0059-17.9492 25.8691-13.0957 25.8691-7.05078C25.8691-1.01562 21.0156 3.84766 14.9707 3.84766ZM9.19922-7.05078C9.19922-6.5332 9.57031-6.17188 10.1172-6.17188L14.0625-6.17188L14.0625-2.2168C14.0625-1.67969 14.4336-1.29883 14.9512-1.29883C15.4883-1.29883 15.8594-1.66992 15.8594-2.2168L15.8594-6.17188L19.8145-6.17188C20.3516-6.17188 20.7324-6.5332 20.7324-7.05078C20.7324-7.59766 20.3613-7.96875 19.8145-7.96875L15.8594-7.96875L15.8594-11.9141C15.8594-12.4609 15.4883-12.8418 14.9512-12.8418C14.4336-12.8418 14.0625-12.4609 14.0625-11.9141L14.0625-7.96875L10.1172-7.96875C9.57031-7.96875 9.19922-7.59766 9.19922-7.05078Z"/>
  </g>
  <text style="stroke:none;fill:black;font-family:sans-serif;font-size:13;font-weight:bold;" transform="matrix(1 0 0 1 263 1953)">Design Variations</text>
  <text style="stroke:none;fill:black;font-family:sans-serif;font-size:13;" transform="matrix(1 0 0 1 263 1971)">Symbols are supported in up to nine weights and three scales.</text>
  <text style="stroke:none;fill:black;font-family:sans-serif;font-size:13;" transform="matrix(1 0 0 1 263 1989)">For optimal layout with text and other symbols, vertically align</text>
  <text style="stroke:none;fill:black;font-family:sans-serif;font-size:13;" transform="matrix(1 0 0 1 263 2007)">symbols with the adjacent text.</text>
  <line style="fill:none;stroke:#00AEEF;stroke-width:0.5;opacity:1.0;" x1="776" x2="776" y1="1919" y2="1933"/>
  <g transform="matrix(1 0 0 1 776 1933)">
   <path d="M3.31055 0.15625C3.82812 0.15625 4.08203-0.0390625 4.26758-0.585938L5.52734-4.0332L11.2891-4.0332L12.5488-0.585938C12.7344-0.0390625 12.9883 0.15625 13.4961 0.15625C14.0137 0.15625 14.3457-0.15625 14.3457-0.644531C14.3457-0.810547 14.3164-0.966797 14.2383-1.17188L9.6582-13.3691C9.43359-13.9648 9.0332-14.2676 8.4082-14.2676C7.80273-14.2676 7.39258-13.9746 7.17773-13.3789L2.59766-1.16211C2.51953-0.957031 2.49023-0.800781 2.49023-0.634766C2.49023-0.146484 2.80273 0.15625 3.31055 0.15625ZM6.00586-5.51758L8.37891-12.0898L8.42773-12.0898L10.8008-5.51758Z"/>
  </g>
  <line style="fill:none;stroke:#00AEEF;stroke-width:0.5;opacity:1.0;" x1="793.197" x2="793.197" y1="1919" y2="1933"/>
  <text style="stroke:none;fill:black;font-family:sans-serif;font-size:13;font-weight:bold;" transform="matrix(1 0 0 1 776 1953)">Margins</text>
  <text style="stroke:none;fill:black;font-family:sans-serif;font-size:13;" transform="matrix(1 0 0 1 776 1971)">Leading and trailing margins on the left and right side of each symbol</text>
  <text style="stroke:none;fill:black;font-family:sans-serif;font-size:13;" transform="matrix(1 0 0 1 776 1989)">can be adjusted by modifying the x-location of the margin guidelines.</text>
  <text style="stroke:none;fill:black;font-family:sans-serif;font-size:13;" transform="matrix(1 0 0 1 776 2007)">Modifications are automatically applied proportionally to all</text>
  <text style="stroke:none;fill:black;font-family:sans-serif;font-size:13;" transform="matrix(1 0 0 1 776 2025)">scales and weights.</text>
  <g transform="matrix(1 0 0 1 1289 1933)">
   <path d="M2.8418 1.86523L4.54102 3.57422C5.40039 4.44336 6.38672 4.38477 7.31445 3.35938L18.0078-8.42773L17.041-9.4043L6.42578 2.27539C6.07422 2.67578 5.74219 2.77344 5.27344 2.30469L4.10156 1.14258C3.63281 0.683594 3.74023 0.341797 4.14062-0.0195312L15.6152-10.8203L14.6387-11.7871L3.04688-0.898438C2.06055 0.0195312 1.98242 0.996094 2.8418 1.86523ZM9.25781-16.3281C8.83789-15.918 8.80859-15.3418 9.04297-14.9512C9.27734-14.5898 9.73633-14.3555 10.3809-14.5215C11.8457-14.8633 13.3691-14.9219 14.7949-13.9844L14.209-12.5293C13.8672-11.6992 14.043-11.1133 14.5801-10.5664L16.875-8.25195C17.3633-7.76367 17.7734-7.74414 18.3398-7.8418L19.4043-8.03711L20.0684-7.36328L20.0293-6.80664C19.9902-6.30859 20.1172-5.92773 20.6055-5.44922L21.3672-4.70703C21.8457-4.22852 22.4609-4.19922 22.9297-4.66797L25.8398-7.58789C26.3086-8.05664 26.2891-8.65234 25.8105-9.13086L25.0391-9.89258C24.5605-10.3711 24.1895-10.5273 23.7109-10.4883L23.1348-10.4395L22.4902-11.0742L22.7344-12.1973C22.8613-12.7637 22.7051-13.2031 22.1191-13.7891L19.9219-15.9766C16.582-19.2969 12.1484-19.2188 9.25781-16.3281ZM10.752-15.957C13.1836-17.7344 16.4746-17.4316 18.7012-15.2051L21.1328-12.793C21.3672-12.5586 21.4062-12.373 21.3379-12.0312L21.0156-10.5469L22.5195-9.0625L23.5059-9.12109C23.7598-9.13086 23.8379-9.11133 24.0332-8.91602L24.6094-8.33984L22.168-5.89844L21.5918-6.47461C21.3965-6.66992 21.3672-6.74805 21.377-7.01172L21.4453-7.98828L19.9512-9.47266L18.4277-9.21875C18.1055-9.15039 17.959-9.17969 17.7148-9.41406L15.7129-11.416C15.459-11.6504 15.4297-11.8164 15.5859-12.1875L16.4648-14.2773C14.9023-15.7324 12.8711-16.3574 10.8398-15.7617C10.6836-15.7227 10.625-15.8496 10.752-15.957Z"/>
  </g>
  <text style="stroke:none;fill:black;font-family:sans-serif;font-size:13;font-weight:bold;" transform="matrix(1 0 0 1 1289 1953)">Exporting</text>
  <text style="stroke:none;fill:black;font-family:sans-serif;font-size:13;" transform="matrix(1 0 0 1 1289 1971)">Symbols should be outlined when exporting to ensure the</text>
  <text style="stroke:none;fill:black;font-family:sans-serif;font-size:13;" transform="matrix(1 0 0 1 1289 1989)">design is preserved when submitting to Xcode.</text>
  <text id="template-version" style="stroke:none;fill:black;font-family:sans-serif;font-size:13;text-anchor:end;" transform="matrix(1 0 0 1 3036 1933)">Template v.4.0</text>
  <text style="stroke:none;fill:black;font-family:sans-serif;font-size:13;text-anchor:end;" transform="matrix(1 0 0 1 3036 1951)">Requires Xcode 14 or greater</text>
  <text id="descriptive-name" style="stroke:none;fill:black;font-family:sans-serif;font-size:13;text-anchor:end;" transform="matrix(1 0 0 1 3036 1969)">Generated from building.2</text>
  <text style="stroke:none;fill:black;font-family:sans-serif;font-size:13;text-anchor:end;" transform="matrix(1 0 0 1 3036 1987)">Typeset at 100 points</text>
  <text style="stroke:none;fill:black;font-family:sans-serif;font-size:13;" transform="matrix(1 0 0 1 263 726)">Small</text>
  <text style="stroke:none;fill:black;font-family:sans-serif;font-size:13;" transform="matrix(1 0 0 1 263 1156)">Medium</text>
  <text style="stroke:none;fill:black;font-family:sans-serif;font-size:13;" transform="matrix(1 0 0 1 263 1586)">Large</text>
 </g>
 <g id="Guides">
  <g id="H-reference" style="fill:#27AAE1;stroke:none;" transform="matrix(1 0 0 1 339 696)">
   <path d="M0.993654 0L3.63775 0L29.3281-67.1323L30.0303-67.1323L30.0303-70.459L28.1226-70.459ZM11.6885-24.4799L46.9815-24.4799L46.2315-26.7285L12.4385-26.7285ZM55.1196 0L57.7637 0L30.6382-70.459L29.4326-70.459L29.4326-67.1323Z"/>
  </g>
  <line id="Baseline-S" style="fill:none;stroke:#27AAE1;opacity:1;stroke-width:0.5;" x1="263" x2="3036" y1="696" y2="696"/>
  <line id="Capline-S" style="fill:none;stroke:#27AAE1;opacity:1;stroke-width:0.5;" x1="263" x2="3036" y1="625.541" y2="625.541"/>
  <g id="H-reference" style="fill:#27AAE1;stroke:none;" transform="matrix(1 0 0 1 339 1126)">
   <path d="M0.993654 0L3.63775 0L29.3281-67.1323L30.0303-67.1323L30.0303-70.459L28.1226-70.459ZM11.6885-24.4799L46.9815-24.4799L46.2315-26.7285L12.4385-26.7285ZM55.1196 0L57.7637 0L30.6382-70.459L29.4326-70.459L29.4326-67.1323Z"/>
  </g>
  <line id="Baseline-M" style="fill:none;stroke:#27AAE1;opacity:1;stroke-width:0.5;" x1="263" x2="3036" y1="1126" y2="1126"/>
  <line id="Capline-M" style="fill:none;stroke:#27AAE1;opacity:1;stroke-width:0.5;" x1="263" x2="3036" y1="1055.54" y2="1055.54"/>
  <g id="H-reference" style="fill:#27AAE1;stroke:none;" transform="matrix(1 0 0 1 339 1556)">
   <path d="M0.993654 0L3.63775 0L29.3281-67.1323L30.0303-67.1323L30.0303-70.459L28.1226-70.459ZM11.6885-24.4799L46.9815-24.4799L46.2315-26.7285L12.4385-26.7285ZM55.1196 0L57.7637 0L30.6382-70.459L29.4326-70.459L29.4326-67.1323Z"/>
  </g>
  <line id="Baseline-L" style="fill:none;stroke:#27AAE1;opacity:1;stroke-width:0.5;" x1="263" x2="3036" y1="1556" y2="1556"/>
  <line id="Capline-L" style="fill:none;stroke:#27AAE1;opacity:1;stroke-width:0.5;" x1="263" x2="3036" y1="1485.54" y2="1485.54"/>
  <line id="left-margin-Ultralight-S" style="fill:none;stroke:#00AEEF;stroke-width:0.5;opacity:1.0;" x1="509.601" x2="509.601" y1="600.785" y2="720.121"/>
  <line id="right-margin-Ultralight-S" style="fill:none;stroke:#00AEEF;stroke-width:0.5;opacity:1.0;" x1="609.821" x2="609.821" y1="600.785" y2="720.121"/>
  <line id="left-margin-Regular-S" style="fill:none;stroke:#00AEEF;stroke-width:0.5;opacity:1.0;" x1="1394.06" x2="1394.06" y1="600.785" y2="720.121"/>
  <line id="right-margin-Regular-S" style="fill:none;stroke:#00AEEF;stroke-width:0.5;opacity:1.0;" x1="1505.63" x2="1505.63" y1="600.785" y2="720.121"/>
  <line id="left-margin-Black-S" style="fill:none;stroke:#00AEEF;stroke-width:0.5;opacity:1.0;" x1="2871.56" x2="2871.56" y1="600.785" y2="720.121"/>
  <line id="right-margin-Black-S" style="fill:none;stroke:#00AEEF;stroke-width:0.5;opacity:1.0;" x1="2995.24" x2="2995.24" y1="600.785" y2="720.121"/>
 </g>
 <g id="Symbols">
  <g id="Black-S" transform="matrix(1 0 0 1 2871.56 696)">
   <path class="monochrome-0 multicolor-0:tintColor hierarchical-0:secondary SFSymbolsPreview007AFF" d="M72.8027 8.1543L101.611 8.1543C109.521 8.1543 113.916 3.56445 113.916-4.63867L113.916-45.2148C113.916-53.418 109.521-58.0078 101.611-58.0078L75.3906-58.0078L75.3906-44.3359L99.2188-44.3359C99.7559-44.3359 100.195-43.8965 100.195-43.3594L100.195-6.49414C100.195-5.95703 99.7559-5.51758 99.2188-5.51758L72.8027-5.51758ZM88.6719-20.4102L94.1895-20.4102C94.8242-20.4102 95.2637-20.8496 95.2637-21.5332L95.2637-26.9531C95.2637-27.6367 94.8242-28.0762 94.1895-28.0762L88.6719-28.0762C88.0371-28.0762 87.5977-27.6367 87.5977-26.9531L87.5977-21.5332C87.5977-20.8496 88.0371-20.4102 88.6719-20.4102ZM88.6719-8.69141L94.1895-8.69141C94.8242-8.69141 95.2637-9.13086 95.2637-9.81445L95.2637-15.2344C95.2637-15.918 94.8242-16.3574 94.1895-16.3574L88.6719-16.3574C88.0371-16.3574 87.5977-15.918 87.5977-15.2344L87.5977-9.81445C87.5977-9.13086 88.0371-8.69141 88.6719-8.69141ZM88.6719-32.1289L94.1895-32.1289C94.8242-32.1289 95.2637-32.5684 95.2637-33.252L95.2637-38.6719C95.2637-39.3555 94.8242-39.7949 94.1895-39.7949L88.6719-39.7949C88.0371-39.7949 87.5977-39.3555 87.5977-38.6719L87.5977-33.252C87.5977-32.5684 88.0371-32.1289 88.6719-32.1289Z"/>
   <path class="monochrome-1 multicolor-1:tintColor hierarchical-1:primary SFSymbolsPreview007AFF" d="M9.76562-4.63867C9.76562 3.56445 14.1602 8.1543 22.0703 8.1543L70.3613 8.1543C78.2715 8.1543 82.666 3.56445 82.666-4.63867L82.666-65.7715C82.666-73.9746 78.2715-78.5645 70.3613-78.5645L22.0703-78.5645C14.1602-78.5645 9.76562-73.9746 9.76562-65.7715ZM23.4863-6.49414L23.4863-63.916C23.4863-64.4531 23.9258-64.8926 24.4629-64.8926L67.9688-64.8926C68.5059-64.8926 68.9453-64.4531 68.9453-63.916L68.9453-6.49414C68.9453-5.95703 68.5059-5.51758 67.9688-5.51758L24.4629-5.51758C23.9258-5.51758 23.4863-5.95703 23.4863-6.49414ZM30.8594 1.26953L40.625 1.26953L40.625-10.9863C40.625-11.5723 41.0156-11.9629 41.6016-11.9629L50.8789-11.9629C51.4648-11.9629 51.8555-11.5723 51.8555-10.9863L51.8555 1.26953L61.6211 1.26953L61.6211-15.6738C61.6211-18.7012 59.7168-20.752 56.8359-20.752L35.6445-20.752C32.7637-20.752 30.8594-18.7012 30.8594-15.6738ZM51.3184-49.2188L57.9102-49.2188C58.6914-49.2188 59.2285-49.7559 59.2285-50.5859L59.2285-57.0801C59.2285-57.9102 58.6914-58.4473 57.9102-58.4473L51.3184-58.4473C50.5371-58.4473 50-57.9102 50-57.0801L50-50.5859C50-49.7559 50.5371-49.2188 51.3184-49.2188ZM51.3184-24.6094L57.9102-24.6094C58.6914-24.6094 59.2285-25.1465 59.2285-25.9766L59.2285-32.4707C59.2285-33.3008 58.6914-33.8379 57.9102-33.8379L51.3184-33.8379C50.5371-33.8379 50-33.3008 50-32.4707L50-25.9766C50-25.1465 50.5371-24.6094 51.3184-24.6094ZM51.3184-36.9141L57.9102-36.9141C58.6914-36.9141 59.2285-37.4512 59.2285-38.2812L59.2285-44.7754C59.2285-45.6055 58.6914-46.1426 57.9102-46.1426L51.3184-46.1426C50.5371-46.1426 50-45.6055 50-44.7754L50-38.2812C50-37.4512 50.5371-36.9141 51.3184-36.9141ZM34.5703-49.2188L41.1621-49.2188C41.9434-49.2188 42.4805-49.7559 42.4805-50.5859L42.4805-57.0801C42.4805-57.9102 41.9434-58.4473 41.1621-58.4473L34.5703-58.4473C33.7891-58.4473 33.252-57.9102 33.252-57.0801L33.252-50.5859C33.252-49.7559 33.7891-49.2188 34.5703-49.2188ZM34.5703-24.6094L41.1621-24.6094C41.9434-24.6094 42.4805-25.1465 42.4805-25.9766L42.4805-32.4707C42.4805-33.3008 41.9434-33.8379 41.1621-33.8379L34.5703-33.8379C33.7891-33.8379 33.252-33.3008 33.252-32.4707L33.252-25.9766C33.252-25.1465 33.7891-24.6094 34.5703-24.6094ZM34.5703-36.9141L41.1621-36.9141C41.9434-36.9141 42.4805-37.4512 42.4805-38.2812L42.4805-44.7754C42.4805-45.6055 41.9434-46.1426 41.1621-46.1426L34.5703-46.1426C33.7891-46.1426 33.252-45.6055 33.252-44.7754L33.252-38.2812C33.252-37.4512 33.7891-36.9141 34.5703-36.9141Z"/>
  </g>
  <g id="Regular-S" transform="matrix(1 0 0 1 1394.06 696)">
   <path class="monochrome-0 multicolor-0:tintColor hierarchical-0:secondary SFSymbolsPreview007AFF" d="M65.625 5.85938L95.166 5.85938C99.2188 5.85938 101.807 2.92969 101.807-1.51367L101.807-51.2695C101.807-55.7129 99.2188-58.6426 95.166-58.6426L68.3594-58.6426L68.3594-51.6113L92.7246-51.6113C94.0918-51.6113 94.7754-50.9277 94.7754-49.5605L94.7754-3.22266C94.7754-1.85547 94.0918-1.17188 92.7246-1.17188L65.625-1.17188ZM80.5664-22.168L86.4746-22.168C87.2559-22.168 87.8418-22.7051 87.8418-23.5352L87.8418-29.248C87.8418-30.0781 87.2559-30.6152 86.4746-30.6152L80.5664-30.6152C79.6875-30.6152 79.1992-30.0781 79.1992-29.248L79.1992-23.5352C79.1992-22.7051 79.6875-22.168 80.5664-22.168ZM80.5664-7.56836L86.4746-7.56836C87.2559-7.56836 87.8418-8.10547 87.8418-8.93555L87.8418-14.6484C87.8418-15.4785 87.2559-16.0156 86.4746-16.0156L80.5664-16.0156C79.6875-16.0156 79.1992-15.4785 79.1992-14.6484L79.1992-8.93555C79.1992-8.10547 79.6875-7.56836 80.5664-7.56836ZM80.5664-36.7676L86.4746-36.7676C87.2559-36.7676 87.8418-37.3535 87.8418-38.1348L87.8418-43.8477C87.8418-44.6777 87.2559-45.2148 86.4746-45.2148L80.5664-45.2148C79.6875-45.2148 79.1992-44.6777 79.1992-43.8477L79.1992-38.1348C79.1992-37.3535 79.6875-36.7676 80.5664-36.7676Z"/>
   <path class="monochrome-1 multicolor-1:tintColor hierarchical-1:primary SFSymbolsPreview007AFF" d="M9.76562-1.51367C9.76562 2.92969 12.4023 5.85938 16.4062 5.85938L65.625 5.85938C69.6289 5.85938 72.2656 2.92969 72.2656-1.51367L72.2656-68.9453C72.2656-73.3398 69.6289-76.3184 65.625-76.3184L16.4062-76.3184C12.4023-76.3184 9.76562-73.3398 9.76562-68.9453ZM16.7969-3.22266L16.7969-67.2363C16.7969-68.6035 17.4805-69.2871 18.8477-69.2871L63.1348-69.2871C64.502-69.2871 65.1855-68.6035 65.1855-67.2363L65.1855-3.22266C65.1855-1.85547 64.502-1.17188 63.1348-1.17188L18.8477-1.17188C17.4805-1.17188 16.7969-1.85547 16.7969-3.22266ZM27.5879 2.14844L33.252 2.14844L33.252-10.9375C33.252-11.6699 33.6426-12.0117 34.3262-12.0117L47.7051-12.0117C48.3887-12.0117 48.7793-11.6699 48.7793-10.9375L48.7793 2.14844L54.3945 2.14844L54.3945-12.6465C54.3945-16.0645 52.9297-17.6758 49.6582-17.6758L32.3242-17.6758C29.1016-17.6758 27.5879-16.0645 27.5879-12.6465ZM46.582-53.0273L53.7109-53.0273C54.6875-53.0273 55.3711-53.7109 55.3711-54.7363L55.3711-61.6211C55.3711-62.5977 54.6875-63.2812 53.7109-63.2812L46.582-63.2812C45.5566-63.2812 44.9219-62.5977 44.9219-61.6211L44.9219-54.7363C44.9219-53.7109 45.5566-53.0273 46.582-53.0273ZM46.582-23.584L53.7109-23.584C54.6875-23.584 55.3711-24.2676 55.3711-25.2441L55.3711-32.1289C55.3711-33.1543 54.6875-33.8379 53.7109-33.8379L46.582-33.8379C45.5566-33.8379 44.9219-33.1543 44.9219-32.1289L44.9219-25.2441C44.9219-24.2676 45.5566-23.584 46.582-23.584ZM46.582-38.3301L53.7109-38.3301C54.6875-38.3301 55.3711-38.9648 55.3711-39.9902L55.3711-46.875C55.3711-47.9004 54.6875-48.5352 53.7109-48.5352L46.582-48.5352C45.5566-48.5352 44.9219-47.9004 44.9219-46.875L44.9219-39.9902C44.9219-38.9648 45.5566-38.3301 46.582-38.3301ZM28.2715-53.0273L35.4004-53.0273C36.4258-53.0273 37.0605-53.7109 37.0605-54.7363L37.0605-61.6211C37.0605-62.5977 36.4258-63.2812 35.4004-63.2812L28.2715-63.2812C27.2949-63.2812 26.6602-62.5977 26.6602-61.6211L26.6602-54.7363C26.6602-53.7109 27.2949-53.0273 28.2715-53.0273ZM28.2715-23.584L35.4004-23.584C36.4258-23.584 37.0605-24.2676 37.0605-25.2441L37.0605-32.1289C37.0605-33.1543 36.4258-33.8379 35.4004-33.8379L28.2715-33.8379C27.2949-33.8379 26.6602-33.1543 26.6602-32.1289L26.6602-25.2441C26.6602-24.2676 27.2949-23.584 28.2715-23.584ZM28.2715-38.3301L35.4004-38.3301C36.4258-38.3301 37.0605-38.9648 37.0605-39.9902L37.0605-46.875C37.0605-47.9004 36.4258-48.5352 35.4004-48.5352L28.2715-48.5352C27.2949-48.5352 26.6602-47.9004 26.6602-46.875L26.6602-39.9902C26.6602-38.9648 27.2949-38.3301 28.2715-38.3301Z"/>
  </g>
  <g id="Ultralight-S" transform="matrix(1 0 0 1 509.601 696)">
   <path class="monochrome-0 multicolor-0:tintColor hierarchical-0:secondary SFSymbolsPreview007AFF" d="M58.6773 4.22462L85.4483 4.22462C88.8199 4.22462 90.4542 2.61182 90.4542-0.787115L90.4542-45.4571C90.4542-48.856 88.8199-50.4688 85.4483-50.4688L61.5933-50.4688L61.5933-48.251L85.3228-48.251C87.462-48.251 88.2364-47.4766 88.2364-45.3828L88.2364-0.861347C88.2364 1.2324 87.462 2.05222 85.3228 2.05222L58.6773 2.05222ZM72.2564-18.5806L79.6177-18.5806C80.1719-18.5806 80.44-18.9361 80.44-19.4937L80.44-26.7505C80.44-27.3081 80.1719-27.6636 79.6177-27.6636L72.2564-27.6636C71.6954-27.6636 71.3887-27.3081 71.3887-26.7505L71.3887-19.4937C71.3887-18.9361 71.6954-18.5806 72.2564-18.5806ZM72.2564-3.93558L79.6177-3.93558C80.1719-3.93558 80.44-4.29105 80.44-4.84866L80.44-12.1055C80.44-12.6631 80.1719-13.0186 79.6177-13.0186L72.2564-13.0186C71.6954-13.0186 71.3887-12.6631 71.3887-12.1055L71.3887-4.84866C71.3887-4.29105 71.6954-3.93558 72.2564-3.93558ZM72.2564-33.2256L79.6177-33.2256C80.1719-33.2256 80.44-33.5845 80.44-34.1387L80.44-41.3955C80.44-41.9531 80.1719-42.3086 79.6177-42.3086L72.2564-42.3086C71.6954-42.3086 71.3887-41.9531 71.3887-41.3955L71.3887-34.1387C71.3887-33.5845 71.6954-33.2256 72.2564-33.2256Z"/>
   <path class="monochrome-1 multicolor-1:tintColor hierarchical-1:primary SFSymbolsPreview007AFF" d="M9.76562-0.787115C9.76562 2.61182 11.4033 4.22462 14.7261 4.22462L58.6773 4.22462C62.0001 4.22462 63.6378 2.61182 63.6378-0.787115L63.6378-69.5356C63.6378-72.9312 62.0001-74.5474 58.6773-74.5474L14.7261-74.5474C11.4033-74.5474 9.76562-72.9312 9.76562-69.5356ZM11.9834-0.861347L11.9834-69.4614C11.9834-71.5552 12.7578-72.3296 14.8516-72.3296L58.5484-72.3296C60.6421-72.3296 61.4165-71.5552 61.4165-69.4614L61.4165-0.861347C61.4165 1.2324 60.6421 2.05222 58.5484 2.05222L14.8516 2.05222C12.7578 2.05222 11.9834 1.2324 11.9834-0.861347ZM23.7735 3.10204L25.8956 3.10204L25.8956-8.34914C25.8956-9.62648 26.5586-10.2407 27.8326-10.2407L45.6162-10.2407C46.8901-10.2407 47.5078-9.62648 47.5078-8.34914L47.5078 3.10204L49.6719 3.10204L49.6719-8.42337C49.6719-11.1602 48.4341-12.3628 45.7076-12.3628L27.7378-12.3628C25.0147-12.3628 23.7735-11.1602 23.7735-8.42337ZM40.4063-53.3452L49.2154-53.3452C49.8741-53.3452 50.2852-53.8018 50.2852-54.4639L50.2852-63.165C50.2852-63.8237 49.8741-64.2349 49.2154-64.2349L40.4063-64.2349C39.7442-64.2349 39.3365-63.8237 39.3365-63.165L39.3365-54.4639C39.3365-53.8018 39.7442-53.3452 40.4063-53.3452ZM40.4063-19.4063L49.2154-19.4063C49.8741-19.4063 50.2852-19.8628 50.2852-20.5215L50.2852-29.2227C50.2852-29.8394 49.8741-30.2959 49.2154-30.2959L40.4063-30.2959C39.7442-30.2959 39.3365-29.8394 39.3365-29.2227L39.3365-20.5215C39.3365-19.8628 39.7442-19.4063 40.4063-19.4063ZM40.4063-36.3775L49.2154-36.3775C49.8741-36.3775 50.2852-36.8306 50.2852-37.4927L50.2852-46.1939C50.2852-46.8106 49.8741-47.2637 49.2154-47.2637L40.4063-47.2637C39.7442-47.2637 39.3365-46.8106 39.3365-46.1939L39.3365-37.4927C39.3365-36.8306 39.7442-36.3775 40.4063-36.3775ZM24.1846-53.3452L32.9937-53.3452C33.6558-53.3452 34.0635-53.8018 34.0635-54.4639L34.0635-63.165C34.0635-63.8237 33.6558-64.2349 32.9937-64.2349L24.1846-64.2349C23.5259-64.2349 23.1182-63.8237 23.1182-63.165L23.1182-54.4639C23.1182-53.8018 23.5259-53.3452 24.1846-53.3452ZM24.1846-19.4063L32.9937-19.4063C33.6558-19.4063 34.0635-19.8628 34.0635-20.5215L34.0635-29.2227C34.0635-29.8394 33.6558-30.2959 32.9937-30.2959L24.1846-30.2959C23.5259-30.2959 23.1182-29.8394 23.1182-29.2227L23.1182-20.5215C23.1182-19.8628 23.5259-19.4063 24.1846-19.4063ZM24.1846-36.3775L32.9937-36.3775C33.6558-36.3775 34.0635-36.8306 34.0635-37.4927L34.0635-46.1939C34.0635-46.8106 33.6558-47.2637 32.9937-47.2637L24.1846-47.2637C23.5259-47.2637 23.1182-46.8106 23.1182-46.1939L23.1182-37.4927C23.1182-36.8306 23.5259-36.3775 24.1846-36.3775Z"/>
  </g>
 </g>
</svg>
